<svg width="1512" height="982" viewBox="0 0 1512 982" fill="none" xmlns="http://www.w3.org/2000/svg">
<rect width="1512" height="982" fill="white"/>
<g filter="url(#filter0_d_1_2)">
<rect x="466" y="221" width="614" height="539" rx="100" fill="black"/>
<rect x="466.5" y="221.5" width="613" height="538" rx="99.5" stroke="black"/>
</g>
<path d="M909.701 668.162C909.615 682.246 898.128 693.593 884.045 693.507L662.5 692.156C648.417 692.07 637.07 680.583 637.155 666.5V666.5C637.241 652.417 648.728 641.07 662.811 641.156L884.356 642.507C898.439 642.593 909.786 654.079 909.701 668.162V668.162Z" fill="white"/>
<path d="M959.978 579.601C973.781 579.269 985.24 590.19 985.572 603.993L988.167 711.962C988.499 725.765 977.578 737.223 963.775 737.555L928.785 738.396C906.7 738.927 888.366 721.454 887.835 699.369L885.961 621.391C885.43 599.306 902.903 580.972 924.988 580.442L959.978 579.601Z" fill="white"/>
<path d="M649.5 688.5C615.05 669.692 581.024 640.243 560.18 607.469C539.336 574.694 527.337 537.278 525.308 498.727C523.279 460.175 531.287 421.751 548.579 387.055C565.872 352.359 591.884 322.527 624.178 300.356C656.471 278.185 693.989 264.4 733.214 260.294C772.44 256.187 812.088 261.894 848.444 276.878C884.8 291.863 916.672 315.634 941.074 345.965C965.477 376.296 981.609 412.194 987.961 450.293L938.045 458.26C933.072 428.431 920.441 400.326 901.336 376.579C882.23 352.831 857.276 334.22 828.812 322.488C800.348 310.756 769.305 306.288 738.594 309.503C707.883 312.718 678.509 323.511 653.226 340.87C627.942 358.228 607.576 381.584 594.037 408.749C580.498 435.914 574.228 465.998 575.817 496.181C577.406 526.365 586.8 555.659 603.119 581.319C619.439 606.979 642.149 628.165 669.121 642.89L649.5 688.5Z" fill="white"/>
<path d="M718.412 564.022C707.428 557.407 698.326 548.149 691.958 537.115C685.59 526.08 682.166 513.631 682.006 500.934C681.846 488.236 684.955 475.707 691.042 464.52C697.129 453.332 705.995 443.853 716.809 436.971C727.623 430.089 740.03 426.029 752.868 425.171C765.707 424.314 778.555 426.687 790.21 432.069C801.865 437.451 811.944 445.664 819.503 455.94C827.062 466.216 831.854 478.218 833.429 490.821L817.056 492.813C815.823 482.946 812.071 473.55 806.153 465.504C800.235 457.459 792.343 451.028 783.218 446.814C774.093 442.601 764.034 440.742 753.982 441.414C743.931 442.085 734.217 445.264 725.75 450.652C717.284 456.04 710.342 463.462 705.576 472.221C700.81 480.98 698.376 490.79 698.501 500.731C698.627 510.672 701.308 520.419 706.293 529.058C711.279 537.698 718.405 544.946 727.005 550.125L718.412 564.022Z" fill="white"/>
<path d="M682.991 620.361C662.18 607.926 644.933 590.52 632.868 569.775C620.803 549.031 614.315 525.626 614.011 501.755C613.708 477.885 619.599 454.329 631.133 433.297C642.666 412.264 659.465 394.444 679.954 381.505C700.443 368.567 723.952 360.934 748.277 359.322C772.602 357.71 796.947 362.172 819.029 372.289C841.112 382.407 860.21 397.849 874.532 417.168C888.855 436.487 897.934 459.05 900.917 482.743L869.895 486.489C867.559 467.939 860.451 450.273 849.237 435.148C838.024 420.022 823.071 407.932 805.782 400.011C788.493 392.089 769.432 388.596 750.388 389.858C731.343 391.12 712.937 397.096 696.895 407.226C680.853 417.356 667.701 431.308 658.671 447.776C649.641 464.243 645.028 482.685 645.266 501.374C645.503 520.064 650.583 538.388 660.029 554.63C669.476 570.871 682.979 584.499 699.273 594.235L682.991 620.361Z" fill="white"/>
<defs>
<filter id="filter0_d_1_2" x="462" y="221" width="622" height="547" filterUnits="userSpaceOnUse" color-interpolation-filters="sRGB">
<feFlood flood-opacity="0" result="BackgroundImageFix"/>
<feColorMatrix in="SourceAlpha" type="matrix" values="0 0 0 0 0 0 0 0 0 0 0 0 0 0 0 0 0 0 127 0" result="hardAlpha"/>
<feOffset dy="4"/>
<feGaussianBlur stdDeviation="2"/>
<feComposite in2="hardAlpha" operator="out"/>
<feColorMatrix type="matrix" values="0 0 0 0 0 0 0 0 0 0 0 0 0 0 0 0 0 0 0.25 0"/>
<feBlend mode="normal" in2="BackgroundImageFix" result="effect1_dropShadow_1_2"/>
<feBlend mode="normal" in="SourceGraphic" in2="effect1_dropShadow_1_2" result="shape"/>
</filter>
</defs>
</svg>
